<?xml version="1.0" encoding="utf-8"?>
<!-- Generator: Adobe Illustrator 26.3.1, SVG Export Plug-In . SVG Version: 6.00 Build 0)  -->
<svg version="1.2" baseProfile="tiny" id="Ramen" xmlns="http://www.w3.org/2000/svg" xmlns:xlink="http://www.w3.org/1999/xlink"
	 x="0px" y="0px" viewBox="0 0 650 650" overflow="visible" xml:space="preserve">
<g id="Soup_Bowl">
	<path id="Bowl_00000078724172159823400280000003242843067423907742_" fill="#3C3C3B" d="M429.3,398.9
		c-26.2-61.4-86.2-58.4-141.8-49.1c-4.8,0.5-4.8,8,0,7.6c41.1-6.9,91.3-13.2,121.1,21.5c13.9,60.6-48.6,96.6-97.6,111.9
		c-40.1,13.3-129.6,35.1-146.7-21.3c5.8-40.5,41.2-72.5,75.8-92.9c4.2-2.5,0.4-9-3.8-6.5c-44.4,26.7-89.3,71-79,127.1
		c6.3,51.3,44.6,96.6,98.7,95.7c2.2,7.6,3.7,21.8,11.5,25.2c8.4,3.7,24-1.3,32.3-3c36.6-7.4,76.6-19.3,107-41.7
		c1.3-0.9,2.4-2.6,1.7-4.3c-2.2-5.7-3.1-11.8-5-17.6C451.4,518.2,452.4,447.9,429.3,398.9z M434.8,486.7
		c-6.5,37.5-32.4,63.2-67.8,75.2c-4.6,1.6-2.6,8.9,2,7.3c10.1-3.4,19.5-7.9,28.1-13.4c2,5.4,3.5,11.1,0.3,14.9
		c-4.2,5-13.8,8.2-19.5,10.9c-33.6,15.2-71.1,27.3-107.8,29.7c-3.1-2.6-5-12.9-6.3-18.6c9.9-0.3,19.9-1.7,29.7-3.9
		c4.7-1,2.7-8.3-2-7.3C221,599.4,168,556.4,163.6,485.2c42.8,72,271.2-4.8,253.8-93.8C432.6,420,440.4,454.5,434.8,486.7z"/>
	<g id="Reflex">
		<path fill="#3C3C3B" d="M238.8,549.6c-10.2-0.3-18.8-6.3-23-15.5c-2-4.4-8.5-0.6-6.5,3.8c5.2,11.6,16.8,19,29.5,19.3
			C243.6,557.2,243.6,549.7,238.8,549.6z"/>
		<path fill="#3C3C3B" d="M262.4,554.6c-1.1,5.4,7.3,6.7,7.6,1.1C271,550.3,262.6,549,262.4,554.6z"/>
	</g>
</g>
<g id="Soup">
	<path fill="#3C3C3B" d="M409.4,407.8c-32.1-24.4-73.7-29.2-110.5-12.8c-4.4,2-0.6,8.5,3.8,6.5c34.3-15.2,73.2-9.8,102.8,12.8
		C409.5,417.3,413.3,410.7,409.4,407.8z"/>
	<path fill="#3C3C3B" d="M318.5,488.8c-40.7-22-74.9-11.7-109.4,15.9c-3.9,2.8-0.1,9.4,3.8,6.5c24.3-19.2,55.1-35.2,85.8-22.3
		c-21.5-4.2-43.2,0.7-60.7,14.3c-3.8,2.9,0,9.5,3.8,6.5c34.7-28.2,68.3-3.3,62.7-18.7c3.4,1.3,6.8,2.8,10.2,4.3
		C319.1,497.4,322.9,490.9,318.5,488.8z"/>
	<path fill="#3C3C3B" d="M219.8,486.5c4-2.7,0.2-9.3-3.8-6.5c-9,6.2-16.6,13.6-23,22.4c-2.9,3.9,3.7,7.7,6.5,3.8
		C205.1,498.5,211.9,491.9,219.8,486.5z"/>
	<path fill="#3C3C3B" d="M335.9,480.3c-17-7-34.4-12.8-52.2-17.4c-4.7-1.2-6.7,6.1-2,7.3c17.8,4.6,35.2,10.4,52.2,17.4
		C338.4,489.5,340.4,482.1,335.9,480.3z"/>
	<path fill="#3C3C3B" d="M361.7,466c-20.9,2.1-38.7-12-59.2-13.3c4.6-2.6,9.6-4.4,14.9-5.4c4.8-0.9,2.8-8.2-2-7.3
		c-7.8,1.8-20,5.2-24,12.4c-2.2,0.1-4.4,0.4-6.7,0.7c-4.8,0.8-2.8,8,2,7.3c26.9-4.2,48.7,16,74.9,13.1
		C366.5,473,366.5,465.5,361.7,466z"/>
	<path fill="#3C3C3B" d="M395.6,435.1c-4.5,2.6-9.5,3.3-14.6,2.1c-4.7-1.2-6.7,6.1-2,7.3c7,1.8,14.1,0.8,20.4-2.8
		C403.6,439.2,399.8,432.7,395.6,435.1z"/>
	<path fill="#3C3C3B" d="M400.7,417.5c-0.2,0.2-0.4,0.3-0.6,0.5c-27.1-21.7-63.4-25.1-94.1-8.8c-2.3,1.2-2.3,3.6-1.1,5.3
		c-14.9,4.7-28.1,14.1-40.9,24.8c-1.6-6.5-61.5,11.9-66.9,16.6c4.1-4.8,8.2-10,13.1-13.7c17.2-7.7,35.4-10.9,54.2-10.5
		c4.8-0.3,4.9-7.9,0-7.6c-11.1,0.6-22.2-0.3-33,3c5.5-2.9,11.4-5.4,17.7-7.3c4.6-1.4,2.7-8.7-2-7.3c-38,11.7-60.9,39.6-77.8,74.2
		c-2.1,4.4,4.4,8.2,6.5,3.8c12.3-32.2,50.3-38.5,80.9-44.6c-1.7,23.2,33.9-36.6,78.8-26.1c4.8,0.9,6.8-6.4,2-7.3
		c-6.5-1.2-12.7-1.4-18.6-0.8c25-9.6,53.1-5.8,74.8,10.8c-5.2,2.9-10.9,4.7-16.9,5.2c-4.8,0.5-4.8,8,0,7.6
		c11-1.1,20.8-5.2,29.3-12.3C409.8,419.7,404.4,414.4,400.7,417.5z"/>
	<path fill="#3C3C3B" d="M283.5,449.6c5.9-3.4,11.9-6.8,17.8-10.3c3-1.7,15.7-11.3,19-8c3.4,3.4,8.8-1.9,5.3-5.3
		c-9.5-10.5-35.4,12.5-46,17C275.5,445.5,279.3,452,283.5,449.6z"/>
	<path fill="#3C3C3B" d="M203.9,472.5c-11.9,4.1-21.8,11.6-29,21.9c-2.8,4,3.8,7.8,6.5,3.8c6-8.7,14.5-15,24.5-18.5
		C210.5,478.2,208.5,470.9,203.9,472.5z"/>
</g>
<path id="Garnish_Long" fill="#3C3C3B" d="M284.3,441.8c-23.4,3.6-46.2,8.9-68.8,16c-5.7-3.6-14.1,24-16.8,28.6
	c-1.1,2.8,2.1,5.4,4.6,4.6c21.7-6,43.4-12,65-18c18.9-5.2,17.4-6.9,20.5-26.6C289.4,443.4,287.3,441.3,284.3,441.8z M272.3,464.2
	c-21,6.3-42.5,11.4-63.6,17.6c2.4-5.5,4.9-10.9,7.7-16.3c21.2-6.7,42.7-11.8,64.6-15.5C280.4,456.5,279.9,461.4,272.3,464.2z"/>
<path id="Garnish_Round" fill="#3C3C3B" d="M380.5,431.9c-11.2-48.4-86.3-3.3-59.1,32c12,8,27,0.5,40-1.1
	C380.1,464,383.2,446.7,380.5,431.9z M339.2,422.7c10.9-9.3,44.9-2.2,26.8,15C346.6,450,303.3,448.9,339.2,422.7z M368.1,453.9
	c-11.4,1.7-42.6,15.2-44.2-3.4c13.4,7,37.9,0.2,49.4-8.4C373.1,446.7,372,451.2,368.1,453.9z"/>
<g id="Chopsticks">
	<path id="Tips" fill="#3C3C3B" d="M198.4,218.2c-6.1,5.2-13.7,9.9-18.1,16.6c-0.6,2.3,0.9,5.5,1.5,7.6c0.5,2.1,2.5,2.9,4.4,2.7
		c-4.1,4-7.2,8.9-5.6,13.9c1.1,3.3,4.8,6.5,8.5,5.4c2.2-0.7,4-3,5.8-4.4c2.2-1.7,4.6-3.3,6.9-4.9c4.1-2.6,0.3-9.2-3.8-6.5
		c-3.5,2.3-6.9,4.7-10.1,7.4c0.9-1.9,4.5-5.9,4.6-6c2.2-2.2,4.6-4.1,7.2-5.7c2-1.2,2.1-3.4,1.3-5c3.9-2.8,0.2-9.3-3.8-6.5
		c-2.9,2-5.9,3.4-9.1,4.4c4.4-4.3,9-8.4,13.9-12.2C206,221.8,202.3,215.2,198.4,218.2z"/>
	<g id="Sticks">
		<path fill="none" d="M455.1,45.8C456.8,46.1,456.7,43.4,455.1,45.8L455.1,45.8z"/>
		<path fill="#3C3C3B" d="M473,85.7c-1-5.2-2-10.4-3-15.6c-0.5-2.5-3.6-3.4-5.6-2.3c-15,8.4-29.9,16.9-44.8,25.5
			c16.8-11.8,33.7-23.7,50.5-35.5c2-1.4,2.6-4.1,0.8-5.9c-4.4-4.4-8.8-8.8-13.1-13.1c-1.1-1.1-3.2-1.6-4.6-0.6
			C386.3,86,319.3,133.8,252.4,181.6c-9.7,7-19.5,13.9-29.2,20.9c-3.9,2.8-0.2,9.4,3.8,6.5c75.7-54.4,152.3-108.3,227.7-162.6
			c2.6,2.6,5.2,5.1,7.7,7.7c-49.3,34.6-98.5,69.3-147.8,103.9c-31.4,20.3-62.3,41.3-92.8,62.9c-2.7,1.9-1.7,5.7,0.5,6.9
			c1,1.5,2.8,2.3,4.7,1c30.5-21.4,60.9-42.8,91.4-64.2c47.5-30.8,96.1-60.1,145.5-87.8c1,3.5,2.1,7.6,1.5,9.4c0,0-12.5,6.2-14.7,7.5
			c-76.3,46.4-152.6,92.9-229,139.3c-4.1,2.5-0.4,9.1,3.8,6.5c81.9-49.8,163.8-99.7,245.7-149.5C472.8,89,473.3,87.3,473,85.7z"/>
	</g>
</g>
<g id="Noodles">
	<g id="Noodle">
		<path fill="#3C3C3B" d="M221.4,195.7c-36.7,14.8-21.5,69.8-14.4,98.6c12.5,50.8,32.9,99.8,50.5,148.9c1.6,4.5,8.9,2.6,7.3-2
			C251.3,403.5,237,366,224.6,328c-5.7-17.6-10.8-35.5-14.3-53.8c-4-21-12.9-60.7,13.1-71.2C227.8,201.2,225.9,193.9,221.4,195.7
			L221.4,195.7z"/>
	</g>
	<g id="Noodle_00000049922318686807854210000017279481025229136310_">
		<path fill="#3C3C3B" d="M224.3,195c-37,24.4-11.6,78.5-2.1,111c14.1,48.6,29.7,96.7,49.7,143.2c1.9,4.5,8.4,0.6,6.5-3.8
			c-16.5-38.3-29.9-77.8-42-117.8c-5.6-18.7-11-37.4-16.3-56.1c-6.5-22.8-16.3-53.9,8-69.9C232.1,198.8,228.3,192.3,224.3,195
			L224.3,195z"/>
	</g>
	<g id="Noodle_00000162336163935754766090000011990148738647440310_">
		<path fill="#3C3C3B" d="M230.8,193c-25.2,22.4-6.6,69.8-0.4,96.6c10.9,47,24.8,93.2,41.1,138.5c1.6,4.5,8.9,2.6,7.3-2
			c-13.6-37.6-25.5-75.8-35.3-114.6c-4.8-18.9-9.1-37.9-13-57c-3.7-18.1-10.3-42.1,5.6-56.2C239.8,195.1,234.4,189.8,230.8,193
			L230.8,193z"/>
	</g>
	<g id="Noodle_00000011747587103798976930000007240936428295205821_">
		<path fill="#3C3C3B" d="M248.9,222.5c12.4,65.7,27.7,130.9,45.8,195.3c1.3,4.7,8.6,2.7,7.3-2c-18.1-64.4-33.4-129.5-45.8-195.3
			C255.3,215.7,248,217.7,248.9,222.5L248.9,222.5z"/>
	</g>
	<g id="Noodle_00000038384144559421814650000007034227056899298726_">
		<path fill="#3C3C3B" d="M234.4,232.6c12,65.6,28.7,130.2,50,193.4c1.5,4.6,8.8,2.6,7.3-2c-21.3-63.2-38-127.8-50-193.4
			C240.8,225.8,233.5,227.8,234.4,232.6L234.4,232.6z"/>
	</g>
</g>
<path id="Shiny_00000075872870168158426770000004793255511951553455_" fill="#3C3C3B" d="M118.9,393c-9.2-0.8-14.5-8.1-12.7-16.3
	c0.6-1.6,1.2-3.2,1.7-4.7c1.3-4-5-6.8-6.9-2.9c-0.7,1.6-1.3,3.1-1.7,4.7c-3,7.5-8.4,17.3-15.5,20.7c-1.2-0.5-2.7-0.4-4,0.6
	c-3.7,2.2-0.7,8.8,3.4,7.6c1.4-0.3,2.8-0.9,4.1-1.6c4.9,5.3,7.1,11.6,6.2,18.4c-0.5,1.8-1,3.7-1.3,5.6c-0.8,4.7,5.7,6.7,7.3,2
	c0.6-1.9,1.1-3.8,1.4-5.7c3.1-9.8,9.9-17.2,19.9-21.5C124.6,398.4,122.2,393.3,118.9,393z M99.7,407.2c-1.3-3.8-3.4-7.3-6.2-10.5
	c2.5-2.4,4.8-5.3,6.8-8.4c1.8,4,4.9,7.3,9,9.5C105.5,400.4,102.3,403.6,99.7,407.2z"/>
<path id="Shiny" fill="#3C3C3B" d="M565.9,320c-9.2-0.8-14.5-8.1-12.7-16.3c0.6-1.6,1.2-3.2,1.7-4.7c1.3-4-5-6.8-6.9-2.9
	c-0.7,1.6-1.3,3.1-1.7,4.7c-3,7.5-8.4,17.3-15.5,20.7c-1.2-0.5-2.7-0.4-4,0.6c-3.7,2.2-0.7,8.8,3.4,7.6c1.4-0.3,2.8-0.9,4.1-1.6
	c4.9,5.3,7.1,11.6,6.2,18.4c-0.5,1.8-1,3.7-1.3,5.6c-0.8,4.7,5.7,6.7,7.3,2c0.6-1.9,1.1-3.8,1.4-5.7c3.1-9.8,9.9-17.2,19.9-21.5
	C571.6,325.4,569.2,320.3,565.9,320z M546.7,334.2c-1.3-3.8-3.4-7.3-6.2-10.5c2.5-2.4,4.8-5.3,6.8-8.4c1.8,4,4.9,7.3,9,9.5
	C552.5,327.4,549.3,330.6,546.7,334.2z"/>
<path id="Shiny_00000116946658448686819300000000018327690686827434_" fill="#3C3C3B" d="M356.8,224.6c-9.2-0.8-14.5-8.1-12.7-16.3
	c0.6-1.6,1.2-3.2,1.7-4.7c1.3-4-5-6.8-6.9-2.9c-0.7,1.6-1.3,3.1-1.7,4.7c-3,7.5-8.4,17.3-15.5,20.7c-1.2-0.5-2.7-0.4-4,0.6
	c-3.7,2.2-0.7,8.8,3.4,7.6c1.4-0.3,2.8-0.9,4.1-1.6c4.9,5.3,7.1,11.6,6.2,18.4c-0.5,1.8-1,3.7-1.3,5.6c-0.8,4.7,5.7,6.7,7.3,2
	c0.6-1.9,1.1-3.8,1.4-5.7c3.1-9.8,9.9-17.2,19.9-21.5C362.5,230,360.1,224.9,356.8,224.6z M337.6,238.8c-1.3-3.8-3.4-7.3-6.2-10.5
	c2.5-2.4,4.8-5.3,6.8-8.4c1.8,4,4.9,7.3,9,9.5C343.5,232,340.2,235.2,337.6,238.8z"/>
</svg>
